<svg xmlns="http://www.w3.org/2000/svg" xmlns:xlink="http://www.w3.org/1999/xlink" width="500" zoomAndPan="magnify" viewBox="0 0 375 374.999991" height="500" preserveAspectRatio="xMidYMid meet" version="1.0"><defs><clipPath id="cb84894e70"><path d="M 14 31 L 361 31 L 361 352.78125 L 14 352.78125 Z M 14 31 " clip-rule="nonzero"/></clipPath></defs><path fill="#ffc4d4" d="M 338.054688 207.527344 L 257.261719 76.851562 C 236.726562 43.636719 195.648438 28.742188 159 42.21875 C 157.855469 42.644531 156.714844 43.097656 155.589844 43.574219 C 143.457031 48.65625 132.191406 56.796875 122.96875 68.171875 C 122.382812 68.894531 121.800781 69.621094 121.234375 70.371094 C 119.742188 72.339844 118.382812 74.40625 117.09375 76.511719 L 36.910156 207.527344 C 0.0390625 264.136719 30.207031 339.457031 96.882812 346.675781 C 97.019531 346.691406 98.773438 346.703125 101.554688 346.710938 L 275.800781 346.710938 C 276.566406 346.710938 277.332031 346.753906 278.082031 346.675781 C 344.714844 339.765625 374.925781 264.136719 338.054688 207.527344 Z M 338.054688 207.527344 " fill-opacity="1" fill-rule="nonzero"/><path fill="#534494" d="M 194.679688 76.851562 L 275.46875 207.527344 C 312.34375 264.136719 282.128906 339.765625 215.496094 346.675781 C 215.226562 346.703125 214.957031 346.703125 214.691406 346.710938 L 275.800781 346.710938 C 276.566406 346.710938 277.332031 346.753906 278.082031 346.675781 C 344.714844 339.765625 374.925781 264.136719 338.054688 207.527344 L 257.261719 76.851562 C 236.726562 43.636719 195.648438 28.742188 159 42.21875 C 157.855469 42.644531 156.714844 43.097656 155.589844 43.574219 C 171.351562 50.113281 185.207031 61.523438 194.679688 76.851562 Z M 194.679688 76.851562 " fill-opacity="1" fill-rule="nonzero"/><path fill="#ff2768" d="M 122.96875 68.171875 C 125.183594 70.902344 127.246094 73.800781 129.128906 76.851562 L 209.917969 207.527344 C 246.792969 264.136719 216.578125 339.765625 149.945312 346.675781 C 149.675781 346.703125 149.410156 346.703125 149.140625 346.710938 L 214.695312 346.710938 C 214.964844 346.703125 215.234375 346.703125 215.503906 346.675781 C 282.136719 339.765625 312.351562 264.136719 275.476562 207.527344 L 194.679688 76.851562 C 185.207031 61.523438 171.351562 50.113281 155.582031 43.574219 C 143.449219 48.660156 132.1875 56.796875 122.96875 68.171875 Z M 122.96875 68.171875 " fill-opacity="1" fill-rule="nonzero"/><g clip-path="url(#cb84894e70)"><path fill="#ffffff" d="M 360.175781 260.265625 C 360.175781 274.875 356.96875 289.265625 350.773438 302.242188 C 337.011719 331.089844 310.75 349.535156 278.71875 352.855469 C 277.796875 352.949219 276.976562 352.941406 276.3125 352.925781 C 276.140625 352.925781 275.964844 352.917969 275.792969 352.917969 L 147.773438 352.917969 C 97.230469 352.960938 96.714844 352.90625 96.203125 352.847656 C 64.058594 349.367188 37.761719 330.789062 24.054688 301.886719 C 9.289062 270.742188 12.128906 234.226562 31.644531 204.207031 L 111.785156 73.273438 C 113.339844 70.726562 114.8125 68.554688 116.28125 66.621094 C 126.835938 52.726562 140.863281 42.269531 156.855469 36.394531 C 195.894531 22.03125 240.351562 37.675781 262.550781 73.578125 L 343.304688 204.199219 C 353.109375 219.269531 358.871094 236.484375 359.976562 253.976562 C 360.109375 256.074219 360.175781 258.167969 360.175781 260.265625 Z M 97.320312 340.472656 C 99.617188 340.511719 118.316406 340.523438 147.773438 340.496094 L 275.800781 340.496094 C 276.042969 340.496094 276.285156 340.503906 276.515625 340.503906 C 276.863281 340.511719 277.261719 340.515625 277.4375 340.496094 C 305.058594 337.628906 327.703125 321.738281 339.554688 296.890625 C 345.082031 285.292969 347.824219 272.828125 347.824219 260.304688 C 347.824219 243.296875 342.773438 226.171875 332.84375 210.917969 L 332.765625 210.789062 L 251.972656 80.113281 C 232.867188 49.207031 194.664062 35.722656 161.136719 48.054688 C 147.382812 53.113281 135.292969 62.132812 126.175781 74.132812 C 124.964844 75.730469 123.71875 77.570312 122.382812 79.757812 L 42.121094 210.917969 C 24.933594 237.308594 22.378906 269.324219 35.296875 296.5625 C 47.078125 321.410156 69.671875 337.402344 97.320312 340.472656 Z M 97.464844 340.488281 C 97.492188 340.488281 97.519531 340.496094 97.546875 340.496094 C 97.535156 340.496094 97.507812 340.496094 97.464844 340.488281 Z M 97.464844 340.488281 " fill-opacity="1" fill-rule="nonzero"/></g></svg>